<svg xmlns="http://www.w3.org/2000/svg" width="500" height="350" viewBox="0 0 500 350" font-family="sans-serif">
<rect width="500" height="350" fill="#ffffff"/>
<defs><marker id="arrowhead" markerWidth="10" markerHeight="7" refX="9" refY="3.5" orient="auto"><polygon points="0 0, 10 3.5, 0 7" fill="#333"/></marker></defs>
<text x="250" y="30" text-anchor="middle" font-size="18" font-weight="bold">2:4 Sparsity</text>
<rect x="150" y="60" width="45" height="45" fill="#ffffff" stroke="#333"/>
<rect x="200" y="60" width="45" height="45" fill="#1a73e8" stroke="#333"/>
<rect x="250" y="60" width="45" height="45" fill="#ffffff" stroke="#333"/>
<rect x="300" y="60" width="45" height="45" fill="#1a73e8" stroke="#333"/>
<rect x="150" y="110" width="45" height="45" fill="#1a73e8" stroke="#333"/>
<rect x="200" y="110" width="45" height="45" fill="#ffffff" stroke="#333"/>
<rect x="250" y="110" width="45" height="45" fill="#1a73e8" stroke="#333"/>
<rect x="300" y="110" width="45" height="45" fill="#ffffff" stroke="#333"/>
<rect x="150" y="160" width="45" height="45" fill="#ffffff" stroke="#333"/>
<rect x="200" y="160" width="45" height="45" fill="#1a73e8" stroke="#333"/>
<rect x="250" y="160" width="45" height="45" fill="#ffffff" stroke="#333"/>
<rect x="300" y="160" width="45" height="45" fill="#1a73e8" stroke="#333"/>
<rect x="150" y="210" width="45" height="45" fill="#1a73e8" stroke="#333"/>
<rect x="200" y="210" width="45" height="45" fill="#ffffff" stroke="#333"/>
<rect x="250" y="210" width="45" height="45" fill="#1a73e8" stroke="#333"/>
<rect x="300" y="210" width="45" height="45" fill="#ffffff" stroke="#333"/>
<text x="250" y="300" text-anchor="middle" font-size="12" fill="#555">2 of every 4 values are zero. Hardware skips them.</text>
</svg>
